<svg xmlns="http://www.w3.org/2000/svg" width="256" height="256"><path fill-opacity=".016" d="M0 128.004v128.004l128.25-.254 128.25-.254.254-127.75L257.008 0H0v128.004m.485.496c0 70.4.119 99.053.265 63.672.146-35.38.146-92.98 0-128C.604 29.153.485 58.1.485 128.5" fill="#1976D2" fill-rule="evenodd"/><path fill-opacity=".131" d="M104.516 2.612c-8.277 3.615-13.193 7.191-20.022 14.566-19.684 21.258-19.502 54.774.414 76.064 7.473 7.989 12.885 11.717 22.435 15.456 6.483 2.538 8.334 2.802 19.657 2.802 14.522 0 19.774-1.537 31.191-9.127 11.898-7.909 20.396-20.086 24.464-35.055 2.885-10.612 2.374-17.299-2.392-31.318-4.187-12.318-14.989-24.726-27.422-31.5L145.5.5 128 .249c-16.95-.243-17.688-.168-23.484 2.363m14.984.038c-10.3 2.154-18.777 5.943-22.881 10.226-2.25 2.349-2.465 2.969-1.198 3.455 2.121.814.908 3.481-1.756 3.861-1.775.252-2.221 1.078-2.474 4.582l-.308 4.274 3.937-4.221c3.559-3.815 3.842-4.499 2.935-7.1-.68-1.951-.671-3.211.028-3.91 1.338-1.338 3.453 2.405 2.606 4.611-.331.864-.319 1.572.029 1.572.347 0 1.059-1.125 1.582-2.5 1.148-3.018 2.964-3.191 5.268-.5.942 1.1 2.504 1.986 3.472 1.968 1.675-.03 1.676-.096.01-1.36-.963-.731-1.75-2.066-1.75-2.968 0-.902-.45-1.64-1-1.64s-1-.391-1-.868c0-1.532 8.168-2.106 9.599-.676.718.718 1.027 1.584.687 1.925-.341.34-.086.619.566.619.775 0 .962.893.539 2.577-.594 2.369 1.131 7.432 2.528 7.417.32-.004 1.283-1.241 2.142-2.75.868-1.525 4.199-4.123 7.5-5.85 5.549-2.901 6.182-3.021 9.644-1.818 2.037.708 5.675 1.583 8.084 1.945 6.349.952 7.551 1.893 5.421 4.247-1.879 2.076-2.322 6.232-.665 6.232.575 0 2.263-1.23 3.75-2.734 1.488-1.503 3.043-2.628 3.455-2.5 1.181.368.881-1.613-.713-4.694C155.105 7.502 132.515-.071 119.5 2.65m16.75 15.012c-1.96.791-1.463 2.338.75 2.338 1.111 0 2-.667 2-1.5 0-1.541-.574-1.716-2.75-.838m-29.602 2.812c-.308.804-.177 1.699.291 1.988.468.29 1.104-.131 1.413-.936.308-.804.177-1.699-.291-1.988-.468-.29-1.104.131-1.413.936m-3.662 7.276c-.007 1.512-.308 3.85-.667 5.195l-.654 2.445 2.356-2.195c2.743-2.555 4.805-2.813 5.615-.701.316.822.934 1.272 1.374 1 1.155-.714-1.268-5.477-2.791-5.486-.705-.004-1.541-.683-1.857-1.508-.995-2.591-3.361-1.714-3.376 1.25M92.62 31.451c.326.852 1.221 1.549 1.987 1.549S96 33.45 96 34s.45 1 1 1c1.92 0 .977-1.582-1.987-3.334-2.532-1.495-2.897-1.528-2.393-.215m58.252 3.299c-1.269 1.619-1.222 1.64.628.283 1.1-.807 2.188-1.594 2.417-1.75.229-.156-.054-.283-.628-.283s-1.662.788-2.417 1.75m-54.139 3.374c.679.684 1.486.991 1.793.683.308-.308-.247-.867-1.233-1.243-1.425-.542-1.54-.428-.56.56m48.08 7.559c.721.289 1.584.253 1.916-.079.332-.332-.258-.568-1.312-.525-1.165.048-1.402.285-.604.604m1.942 4.005c-.959.251-3.321 2.833-5.25 5.738-2.594 3.909-3.505 6.358-3.505 9.428 0 2.28.398 4.146.883 4.146.486 0 1.119.9 1.407 2 .402 1.54 1.292 1.966 3.866 1.85 3.026-.135 3.082-.189.594-.566-1.512-.229-2.75-.584-2.75-.789 0-.204 1.249-1.739 2.775-3.409 3.156-3.457 5.686-10.894 4.973-14.624-.315-1.646.077-2.838 1.136-3.457 1.39-.812 1.336-.932-.384-.859-1.1.047-2.785.291-3.745.542M110.572 74.75c.497.412 1.241 1.2 1.651 1.75.426.571.753.249.762-.75.008-.973-.725-1.75-1.652-1.75-.916 0-1.259.338-.761.75M156 112.212c-6.325.501-24.662.65-40.75.332L86 111.965v3.419c0 3.413.01 3.421 5.75 4.135 9.657 1.2 15.54 3.576 17.137 6.92 1.043 2.184 1.621 10.788 2.254 33.5.758 27.264 2.201 53.524 2.681 48.811.116-1.137 1.028-1.75 2.607-1.75 2.125 0 2.565.657 3.519 5.25l1.089 5.25 6.382-.122c6.325-.121 6.388-.095 6.982 2.875.329 1.648.634 5.528.676 8.622.042 3.094.632 7.425 1.31 9.625 1.007 3.269 1.646 3.954 3.495 3.749 5.267-.584 5.118 1.097 5.12-57.928.001-63.216-.321-60.772 8.287-62.932 2.634-.661 7.496-1.516 10.804-1.9l6.015-.698-.304-3.568c-.167-1.963-.754-3.648-1.304-3.745-.55-.098-6.175.233-12.5.734m-41.678 135.241c-2.82 1.556-7.431 2.703-14.19 3.531-7.821.958-10.409 1.673-11.822 3.268l-1.81 2.041 15.5-.88c19.926-1.13 37.048-1.137 54.138-.023l13.638.889-.491-2.568c-.329-1.722-.966-2.387-1.93-2.017-2.896 1.111-20.53-1.946-25.032-4.339-3.814-2.028-5.775-2.345-14.126-2.281-8.161.063-10.359.44-13.875 2.379" fill="#1976D2" fill-rule="evenodd"/><path fill-opacity=".395" d="M107 2.207C90.742 8.424 77.811 22.079 72.798 38.325c-3.036 9.842-3.015 23.384.053 33.388 2.684 8.753 10.382 20.623 16.922 26.093 23.414 19.584 55.182 18.234 76.81-3.265 8.123-8.075 12.32-15.721 15.392-28.041 2.516-10.094 2.51-12.764-.056-22.833-3.931-15.424-11.646-26.859-23.637-35.035-10.681-7.282-15.753-8.641-32.007-8.58C114.77.096 111.594.451 107 2.207m13.5-.161c-17.637 2.329-28.298 10.327-31.493 23.627-.441 1.839-.348 3.586.223 4.157.646.646.272 1.366-1.089 2.094-2.364 1.266-3.508 4.995-5.238 17.076-.669 4.675-1.596 8.928-2.06 9.45-1.537 1.731-.875 4.197 1.407 5.242 7.064 3.235 10.054 4.337 10.517 3.874.286-.285-.22-.803-1.124-1.149-.904-.347-1.643-1.23-1.643-1.962 0-.832-1.033-1.261-2.75-1.143-2.397.164-2.789-.213-3.054-2.937-.417-4.287 2.045-6.565 6.678-6.178 2.9.242 4.076-.226 5.876-2.341 1.237-1.455 2.25-3.054 2.25-3.554 0-1.559 6.507-7.302 8.273-7.302 1.357 0 1.503-.458.767-2.396-.786-2.067-.584-2.458 1.474-2.851 1.435-.275 2.593.082 2.905.895.701 1.828 2.581 1.72 2.581-.148 0-.825-.408-1.5-.906-1.5-.499 0-.688-.838-.42-1.862.292-1.117-.145-2.105-1.093-2.469-.88-.337-1.581-1.759-1.581-3.205 0-2.012.395-2.478 1.75-2.064.963.294 4.225 1.197 7.25 2.006 13.379 3.579 23.012 7.403 25.179 9.995 2.085 2.495 2.288 3.747.571 3.524-2.658-.345-3.341.157-3.296 2.422.025 1.29.614 3.031 1.308 3.867 1.028 1.238.981 1.754-.25 2.776-.831.69-1.512 2.1-1.512 3.132 0 1.033-.438 1.878-.974 1.878-1.631 0-4.026 5.679-4.026 9.546 0 2.129.896 4.903 2.154 6.671 1.993 2.798 2.499 2.984 6.75 2.482 4.858-.573 8.417.965 8.003 3.459-.122.738.116 2.116.531 3.061.625 1.428 1.456.858 4.907-3.368 7.756-9.497 8.981-11.732 9.436-17.229.427-5.143.359-5.304-2.901-6.883-2.078-1.007-3.568-1.243-3.949-.627-.972 1.572-5.931-1.165-5.931-3.273 0-2.091-3.222-2.466-7.435-.864-1.411.537-2.565.747-2.565.467 0-.678 6.786-7.442 7.467-7.442.293 0 1.433.9 2.533 2 2.965 2.965 4.537 2.502 2.547-.75-1.527-2.495-1.4-2.449 1.371.5 1.68 1.788 3.237 3.25 3.461 3.25 1.492 0 1.289-3.731-.383-7.007-1.552-3.043-1.768-4.463-.99-6.507 1.498-3.942 1.195-11.259-.625-15.095-1.944-4.097-7.436-8.628-13.725-11.324-4.181-1.792-18.432-5.249-20.364-4.94-.436.07-3.492.483-6.792.919M95.525 25.972c-2.142 2.367-1.908 3.533.975 4.846 1.375.627 2.514 1.936 2.53 2.911.052 2.989 2.318-1.665 2.616-5.372.211-2.626-.146-3.219-2.171-3.607-1.489-.284-3.014.188-3.95 1.222M88 35.5c0 .917.484 1.505 1.075 1.308.591-.197 1.075-.785 1.075-1.308s-.484-1.111-1.075-1.308C88.484 33.995 88 34.583 88 35.5m4.543 3.431c-.317.512-.138 1.201.397 1.532.535.331.699 1.314.365 2.184-.486 1.268-.154 1.44 1.669.861 1.651-.524 2.071-.391 1.531.485-.583.942-.253.942 1.502.003l2.249-1.203-2.584-2.397c-2.756-2.554-4.201-2.967-5.129-1.465m5.57 31.356c-.612.612-1.113 1.896-1.113 2.854 0 .958-.45 2.019-1 2.359-1.728 1.068-1.089 4.899 1.251 7.5 1.549 1.722 3.456 2.573 6.126 2.735 4.56.276 14.623 4.634 14.623 6.332 0 .874.387.857 1.5-.067.825-.685 1.5-1.942 1.5-2.794 0-.852.769-2.398 1.708-3.436 2.307-2.549.846-4.7-4.523-6.658-2.679-.976-4.185-2.138-4.185-3.229 0-3.35-13.41-8.073-15.887-5.596m69.115 42.885c-.644.644-5.797 1.766-11.45 2.493-6.998.9-11.823 2.122-15.12 3.828-4.115 2.13-6.192 2.507-13.822 2.507-7.67 0-9.589-.352-13.158-2.412-4.18-2.413-14.902-4.588-22.62-4.588-3.229 0-4.058.365-4.058 1.785 0 1.467 1.383 1.98 7.75 2.874 10.583 1.485 12.842 2.585 15.978 7.775 1.893 3.135 3.461 4.563 5.237 4.77 2.768.323 2.348-1.622 4.813 22.296l.722 7 6.196.296 6.195.297.561 4.203c.308 2.312 1.015 9.799 1.571 16.637 1.032 12.696 1.449 14.605 2.56 11.71.347-.904 1.64-1.643 2.873-1.643h2.242l.546-32.869c.373-22.463.921-33.571 1.731-35.085 1.649-3.081 6.377-4.813 15.357-5.627l7.668-.695v-3.362c0-3.739-.1-3.862-1.772-2.19" fill="#1976D2" fill-rule="evenodd"/><path fill-opacity=".727" d="M110.912 1.445C97.22 5.222 83.13 17.027 76.831 30c-7.852 16.171-7.796 32.95.164 49.539 15.298 31.88 55.576 41.215 84.289 19.536 10.001-7.55 17.03-19.079 20.089-32.948 2.029-9.193 2.031-12.026.021-21.254-2.074-9.518-7.213-20.057-13.014-26.689-7.449-8.515-20.26-16.078-29.63-17.492-5.582-.843-4.533.733 1.5 2.253 14.199 3.578 23.783 12.232 24.052 21.718.052 1.835.387 3.337.744 3.337.358 0 1.504 1.893 2.547 4.207 1.043 2.313 3.137 5.563 4.652 7.222 2.969 3.251 3.282 4.127 1.803 5.041-.557.344-.111 2.548 1.074 5.309 3.944 9.187 3.386 20.027-.598 11.631-2.347-4.947-2.819-3.768-.977 2.438 1.38 4.647 1.382 5.415.02 7.36C171.082 74.755 154.825 92 153.966 92c-.436 0-.287-1.339.331-2.975.845-2.239.823-3.803-.087-6.321-.666-1.84-1.21-4.327-1.21-5.525 0-2.395-.279-2.492-7.443-2.603-4.469-.069-5.164-.403-7.262-3.493-2.333-3.435-2.656-8.585-.853-13.583.692-1.92.661-1.926-.787-.159-2.035 2.483-5.11 1.389-6.669-2.374-.676-1.632-1.624-2.967-2.107-2.967-.484 0-.879-.63-.879-1.4 0-.858-1.979-1.875-5.108-2.626-2.81-.674-6.546-2.488-8.304-4.03-2.178-1.913-3.639-2.53-4.593-1.941-.77.476-1.795.621-2.279.322-1.06-.656-6.716 4.571-6.716 6.207 0 .637-.928 1.998-2.062 3.024-1.167 1.056-1.858 2.641-1.593 3.655.573 2.192-1.884 2.432-2.716.264-.423-1.103-1.351-1.341-3.357-.862-4.024.962-5.272 2.266-5.272 5.509 0 2.856 2.175 4.023 3.5 1.878 1.108-1.793 2.747-1.052 2.21 1-.323 1.237-.03 2 .767 2 .709 0 1.528 1.237 1.818 2.75.672 3.497.362 3.764-1.826 1.576-2.148-2.148-5.22-3.796-8.708-4.671-1.818-.456-2.948-1.693-3.74-4.092-.624-1.891-2.038-4.587-3.143-5.991-1.104-1.404-1.793-2.901-1.529-3.327.263-.426.781-3.918 1.152-7.76C76.182 36.43 80.014 26 81.926 26c.57 0 1.317-1.122 1.661-2.492.499-1.988 1.083-2.378 2.884-1.926 1.494.375 2.456.051 2.843-.957.414-1.08.129-1.349-.981-.922-1.321.507-1.386.264-.414-1.551.633-1.184 1.81-2.152 2.615-2.152.805 0 3.242-1.726 5.415-3.835C100.326 7.917 106.173 4.764 113 2.97c2.475-.65 5.4-1.554 6.5-2.009 3.308-1.366-3.213-.999-8.588.484M83 27c-1.282.828-1.246.972.25.985.963.008 1.75-.435 1.75-.985 0-1.22-.113-1.22-2 0m10.59 11.744c-.318.317.349 1.225 1.481 2.018 1.132.793 2.179 1.284 2.327 1.09.498-.652-3.225-3.691-3.808-3.108m2.621 22.651c.709.767 1.675 1.161 2.146.875.471-.286.246-.907-.5-1.38-2.11-1.337-3.075-1.041-1.646.505M101 63c0 .55.45 1 1 1s1-.45 1-1-.45-1-1-1-1 .45-1 1m-2.783 6.788c-1.051.942-2.488 3.585-3.195 5.874-1.188 3.852-1.111 4.41 1.043 7.5 1.28 1.836 3.299 4.269 4.487 5.407 1.189 1.138 2.338 2.5 2.554 3.027.714 1.737 11.286 6.387 11.978 5.269.355-.575 1.719-1.579 3.031-2.232 1.312-.652 2.836-2.568 3.386-4.257.551-1.69 1.614-3.81 2.362-4.711 2.024-2.439.704-4.493-4.251-6.617-2.476-1.061-4.713-2.791-5.072-3.922-.353-1.113-1.632-2.325-2.841-2.693-1.21-.368-2.874-1.23-3.699-1.914-2.696-2.236-7.687-2.609-9.783-.731M83.364 87.697c1.767 3.366 7.684 9.138 13.026 12.706 5.264 3.515 6.519 3.386 5.705-.591-.529-2.59-1.957-3.999-7.623-7.522-3.835-2.384-8.233-5.024-9.775-5.866l-2.803-1.53 1.47 2.803m26.186 18.175c.523.48 2.975 1.149 5.45 1.488l4.5.616-3.365-1.488c-3.678-1.626-8.14-2.044-6.585-.616m38.95 12.794c-6.718 2.051-8.399 3.457-5.441 4.552 1.468.543 2.785.375 3.838-.489 2.841-2.331 6.468-3.648 12.603-4.578l6-.91-6-.051c-3.3-.028-8.25.636-11 1.476" fill="#1976D2" fill-rule="evenodd"/></svg>